<svg width="472" height="161" viewBox="0 0 472 161" fill="none" xmlns="http://www.w3.org/2000/svg">
<path d="M171.5 3.5C167.4 7.5 168.9 13 174 13C176.3 13 177.1 12.5 177.6 10.5C178.3 7.8 176.6 5 174.4 5C172.7 5 172.6 3.8 174.2 2.2C174.9 1.5 175.1 1 174.7 1C174.2 1 172.8 2.1 171.5 3.5Z" fill="#EC6B6B"/>
<path d="M229.4 1.8C217.3 6.1 207.8 14.6 203.9 24.8C200.9 32.5 200.2 44.9 202.4 52.2C203.3 55.3 204 58.1 204 58.4C204 58.7 200.7 61.1 196.8 63.8C178.2 76.4 170 92.9 172.8 112.3C176 134.9 193.1 151.4 220.5 158.6C226.1 160.1 231.3 160.5 246 160.5C262.4 160.5 265.5 160.2 273 158.1C308.7 148.1 327.1 125.8 325.8 94C325.4 83.2 323.3 77.9 316.6 70.3C314.5 67.9 313 65.6 313.3 65.3C313.9 64.7 328.5 68.1 333.4 70L336 71V113V155H347H358V116.9C358 86.8 358.3 78.9 359.3 79.3C361.8 80.2 403.7 93.7 408.5 95.1L413.5 96.6L413.8 125.8L414 155H425H436V128.7V102.5L442.8 102.4C460.3 102.2 472 92.1 472 77.1C472 67.1 466.4 58.9 458.5 57.4C453.5 56.5 450.2 57.6 446.3 61.5C442.3 65.5 441.9 69.6 445.3 72.8C449.9 77.2 456.4 74.6 455.8 68.6C455.6 66.2 454.8 65.2 452.3 64C448.6 62.3 448.6 61.1 452.2 59.1C456.2 56.8 462.3 59 465.5 63.8C472.2 74 467.8 89.4 456.3 95.8C451.7 98.3 441.9 100.3 438.3 99.4L436 98.8V49.4V-2.39164e-06H425H414V46.6V93.2L410.8 92.5C407.6 91.8 376.9 82.1 364.3 77.8L358 75.6V37.8V-2.39164e-06H347H336V34C336 52.7 335.6 68 335.1 68C334.7 68 327.3 65.8 318.9 63C292.5 54.5 288.5 54.1 275 58.1C269.5 59.8 262.5 66.1 259.2 72.4C256.9 76.8 256.5 78.7 256.5 86.5C256.5 96.1 257.8 99.6 263.9 106.3C273.5 116.8 292.3 116.5 300.1 105.7C302.5 102.3 303 100.7 303 95.6C303 88.2 300.2 83.3 294.4 80.5C290 78.4 282.4 78.8 278.5 81.4C272.3 85.5 271.6 95.8 277.3 99C279.7 100.3 280.3 100.3 282.8 99C286.5 96.9 287.2 90.9 283.8 88.6C282.6 87.7 280.5 87 279.2 87C277.3 87 277.1 86.7 277.9 85.1C278.5 84.1 280.6 82.5 282.6 81.5C291.7 77.2 301.5 84.6 301.5 95.9C301.5 109.3 285.6 117 272.3 110.1C257.1 102.3 254.5 80.8 267.3 67.9C273.2 62 278.9 59.6 287.5 59.6C293.5 59.5 295.3 59.9 299.9 62.5C313.3 69.9 321.1 81.2 321.8 94.3C323 115.4 311 134.2 289.8 144.4C272.6 152.7 262.3 154.8 248.1 152.9C221.5 149.4 203.5 137.8 192.6 117C183.6 100 183.9 81.1 193.4 69.6C196.7 65.6 203.6 60.2 204.4 61.1C204.6 61.3 206.4 64 208.3 67.1C215.4 78.3 225 83.4 234 81C240.3 79.3 245 72.2 243.6 66.7C241.7 59.2 234.2 55.1 222.3 55H214.1L212.8 50.7C212.1 48.4 211.5 42.2 211.5 37C211.5 28.5 211.8 26.9 214.4 21.5C222 6.2 238.5 -2 252.2 2.8C259.9 5.5 264.4 9.2 267.5 15.3C275.8 32 263.7 48.1 247 42.5C241.7 40.7 239.3 38.2 239 34C238.5 28.4 239.1 26.6 242.6 23.4L246.1 20H242.5C235.5 20 231.4 27.8 234 36.3C236.2 44.1 243.2 49 252 49C265 49 273 40.7 273 27.3C272.9 15.9 267.9 8.2 257.3 3.2C249.8 -0.300002 237.2 -0.900002 229.4 1.8ZM227.2 57C231.7 58.3 237 62.5 237 64.9C237 65.9 235.9 67.7 234.5 69C230.2 73 222.2 70.1 217.8 62.9C214.8 57.9 215.5 56.2 221 56.1C222.4 56 225.2 56.5 227.2 57Z" fill="#EC6B6B"/>
<path d="M182.8 3C186.6 5.3 188.4 9.2 187.6 13.7C187.4 15.5 184.4 24.5 181.1 33.7C176 47.9 167.3 72.5 150.8 119.2C149.1 124.1 147.4 128 147.1 128C146.7 128 143.2 118.9 139.3 107.7C135.4 96.6 128.5 77.1 124 64.5C119.5 51.8 112.8 32.9 109.2 22.5L102.5 3.5L91.1 3.2C80.6 3 79.8 3.1 80.5 4.7C80.9 5.7 84.5 15.7 88.6 27.1L96.1 47.6L88 70.1C83.5 82.4 79 95 78 98C76.3 103.2 70.5 119.1 68 125.5C66.4 129.7 68.9 136 45.2 69C40.2 55 32.9 34.4 28.9 23.2L21.7 3H10.9C4.9 3 0 3.2 0 3.4C0 4.3 17.7 54.2 42.2 122.5C47.7 137.9 52.7 151.7 53.2 153.2C54 155.3 54.9 156 56.9 156C59.3 156 59.8 155.3 61.8 149.7C66.4 136.1 72.1 120.4 73 118.5C73.5 117.4 74.6 114.5 75.4 112C76.2 109.5 78.1 104.3 79.5 100.5C81 96.6 83.9 88.5 86 82.5C94.3 59.1 96.8 52.5 97.5 52.5C97.9 52.5 102.2 63.5 107 77C111.8 90.5 120.2 113.8 125.6 128.8C138.6 165.1 136.7 165.4 151.1 125C157.1 108.2 165.2 85.5 169.1 74.5C181.8 39 190 14.8 190 12.8C190 9.3 186.8 4 183.9 2.5C179.8 0.299998 179 0.699998 182.8 3Z" fill="#EC6B6B"/>
</svg>
